<svg width="38" height="39" viewBox="0 0 38 39" fill="none" xmlns="http://www.w3.org/2000/svg">
<path d="M37 18.5C37.0069 21.1397 36.3901 23.7438 35.2 26.1C33.7889 28.9235 31.6195 31.2983 28.9349 32.9586C26.2503 34.6188 23.1565 35.4988 20 35.5C17.3603 35.5069 14.7562 34.8901 12.4 33.7L1 37.5L4.8 26.1C3.60986 23.7438 2.99312 21.1397 3 18.5C3.00122 15.3435 3.88122 12.2497 5.54144 9.5651C7.20165 6.88049 9.57651 4.71113 12.4 3.3C14.7562 2.10986 17.3603 1.49311 20 1.5H21C25.1687 1.72998 29.1061 3.48952 32.0583 6.44171C35.0105 9.39391 36.77 13.3313 37 17.5V18.5Z" fill="#91D8E4" stroke="#91D8E4" stroke-width="2" stroke-linecap="round" stroke-linejoin="round"/>
</svg>
