<svg width="36" height="35" viewBox="0 0 36 35" fill="none" xmlns="http://www.w3.org/2000/svg">
<path d="M12.0411 27.9422C12.0411 28.0828 11.8742 28.1953 11.6637 28.1953C11.4242 28.2164 11.2573 28.1039 11.2573 27.9422C11.2573 27.8016 11.4242 27.6891 11.6347 27.6891C11.8524 27.668 12.0411 27.7805 12.0411 27.9422ZM9.78387 27.6258C9.73306 27.7664 9.87823 27.9281 10.096 27.9703C10.2847 28.0406 10.5024 27.9703 10.546 27.8297C10.5895 27.6891 10.4516 27.5273 10.2339 27.4641C10.0452 27.4148 9.83468 27.4852 9.78387 27.6258ZM12.9919 27.5063C12.7815 27.5555 12.6363 27.6891 12.6581 27.8508C12.6798 27.9914 12.8685 28.0828 13.0863 28.0336C13.2968 27.9844 13.4419 27.8508 13.4202 27.7102C13.3984 27.5766 13.2024 27.4852 12.9919 27.5063ZM17.7677 0.5625C7.70081 0.5625 0 7.96641 0 17.7188C0 25.5164 5.06613 32.1891 12.3024 34.5375C13.2315 34.6992 13.5581 34.1437 13.5581 33.6867C13.5581 33.2508 13.5363 30.8461 13.5363 29.3695C13.5363 29.3695 8.45565 30.4242 7.38871 27.2742C7.38871 27.2742 6.56129 25.2281 5.37097 24.7008C5.37097 24.7008 3.70887 23.5969 5.4871 23.618C5.4871 23.618 7.29435 23.7586 8.28871 25.432C9.87823 28.1461 12.5419 27.3656 13.5798 26.9016C13.7468 25.7766 14.2185 24.9961 14.7411 24.532C10.6839 24.0961 6.59032 23.5266 6.59032 16.7625C6.59032 14.8289 7.14194 13.8586 8.30323 12.6211C8.11452 12.1641 7.49758 10.2797 8.49193 7.84687C10.0089 7.38984 13.5 9.74531 13.5 9.74531C14.9516 9.35156 16.5121 9.14766 18.0581 9.14766C19.604 9.14766 21.1645 9.35156 22.6161 9.74531C22.6161 9.74531 26.1073 7.38281 27.6242 7.84687C28.6185 10.2867 28.0016 12.1641 27.8129 12.6211C28.9742 13.8656 29.6855 14.8359 29.6855 16.7625C29.6855 23.5477 25.4105 24.0891 21.3532 24.532C22.021 25.0875 22.5871 26.1422 22.5871 27.7945C22.5871 30.1641 22.5653 33.0961 22.5653 33.6727C22.5653 34.1297 22.8992 34.6852 23.821 34.5234C31.079 32.1891 36 25.5164 36 17.7188C36 7.96641 27.8347 0.5625 17.7677 0.5625ZM7.05484 24.8133C6.96048 24.8836 6.98226 25.0453 7.10565 25.1789C7.22177 25.2914 7.38871 25.3406 7.48306 25.2492C7.57742 25.1789 7.55564 25.0172 7.43226 24.8836C7.31613 24.7711 7.14919 24.7219 7.05484 24.8133ZM6.27097 24.2437C6.22016 24.3352 6.29274 24.4477 6.4379 24.518C6.55403 24.5883 6.69919 24.5672 6.75 24.4688C6.80081 24.3773 6.72823 24.2648 6.58306 24.1945C6.4379 24.1523 6.32177 24.1734 6.27097 24.2437ZM8.62258 26.7469C8.50645 26.8383 8.55 27.0492 8.71694 27.1828C8.88387 27.3445 9.09435 27.3656 9.18871 27.2531C9.28306 27.1617 9.23952 26.9508 9.09435 26.8172C8.93468 26.6555 8.71694 26.6344 8.62258 26.7469ZM7.79516 25.7133C7.67903 25.7836 7.67903 25.9664 7.79516 26.1281C7.91129 26.2898 8.10726 26.3602 8.20161 26.2898C8.31774 26.1984 8.31774 26.0156 8.20161 25.8539C8.1 25.6922 7.91129 25.6219 7.79516 25.7133Z" fill="#B3B3B3"/>
</svg>
